<svg
  version="1.1"
  xmlns="http://www.w3.org/2000/svg"
  xmlns:xlink="http://www.w3.org/1999/xlink"
  x="0px"
  y="0px"
  width="100%"
  height="100%"
  viewBox="0 0 400.06 400.06"
  style="enable-background: new 0 0 400.06 400.06"
  xml:space="preserve"
>
  <style type="text/css">
    .st0 {
      fill: #ffffff;
    }
    .st1 {
      fill: #3b444a;
    }
    .st2 {
      fill: #2c83ba;
    }
  </style>
  <defs></defs>
  <g>
    <polygon
      class="st0"
      points="26.66,2.43 26.66,26.66 2.43,26.66 2.43,397.63 373.4,397.63 373.4,373.4 
							397.63,373.4 397.63,302.43 397.63,248.74 397.63,2.43 	"
    />
    <g>
      <path
        class="st1"
        d="M23.71,0v23.71H0v376.36h376.36v-23.71h23.71V0H23.71z M30.44,30.44h24.88v-6.73H30.44V6.73h362.89V300.2
								H30.44V30.44z M369.62,393.33H6.73V30.44h16.97v345.92h345.92V393.33z M393.33,369.62h-16.97v-24.88h-6.73v24.88H30.44v-62.68
								h362.89V369.62z"
      />
    </g>
    <path
      class="st2"
      d="M141.11,100.42c6.3-54,86.58-63.73,124.39-34.23c18.63,15.31-1.09,39.52-17.54,27.28
							c-20.27-13.08-66.31-19.21-72.06,9.74c-7.4,45.64,111.78,19.48,109.87,93.52c-1.91,70.7-102.74,72.37-140.55,40.63
							c-9.05-7.51-8.77-19.76-3.84-27.27c7.13-7.24,15.07-9.74,24.38-1.95c22.47,15.58,80.28,27.28,84.39-12.25
							C246.59,154.7,132.61,179.46,141.11,100.42z"
    />
    <g>
      <g>
        <path
          class="st2"
          d="M94.42,335.75c0.92,0.44,1.67,0.9,2.25,1.38c0.58,0.47,1.04,0.95,1.38,1.42c0.33,0.47,0.57,0.94,0.71,1.4
									c0.14,0.46,0.23,0.88,0.26,1.26v0.52c0,0.88-0.15,1.75-0.45,2.58c-0.3,0.84-0.77,1.59-1.4,2.25c-0.85,0.89-1.86,1.56-3.01,2.04
									c-1.15,0.47-2.43,0.71-3.82,0.71c-1.55,0-2.97-0.36-4.27-1.07c-1.3-0.71-2.29-1.67-2.99-2.87c-0.22-0.51-0.33-0.92-0.33-1.23
									c0-0.41,0.1-0.8,0.28-1.16c0.19-0.36,0.49-0.66,0.9-0.88c0.44-0.22,0.84-0.33,1.19-0.33c0.38,0,0.76,0.1,1.14,0.31
									c0.38,0.21,0.68,0.51,0.9,0.92c0.35,0.57,0.83,0.96,1.45,1.19c0.62,0.22,1.19,0.33,1.73,0.33c0.73,0,1.38-0.09,1.94-0.28
									c0.57-0.19,1.03-0.49,1.38-0.9h-0.05c0.44-0.44,0.66-1.04,0.66-1.8c-0.09-0.19-0.29-0.39-0.59-0.62
									c-0.3-0.22-0.66-0.45-1.09-0.69c-0.43-0.24-0.88-0.46-1.35-0.66c-0.47-0.21-0.93-0.36-1.38-0.45l-0.09-0.05
									c-0.7-0.19-1.41-0.45-2.13-0.78c-0.73-0.33-1.39-0.77-1.99-1.3c-0.6-0.54-1.09-1.18-1.47-1.92c-0.38-0.74-0.57-1.62-0.57-2.63
									c0-0.88,0.2-1.71,0.59-2.47c0.39-0.76,0.94-1.42,1.64-1.99c0.69-0.57,1.52-1.01,2.49-1.33c0.96-0.32,2-0.47,3.1-0.47
									c0.73,0,1.49,0.12,2.28,0.36c0.79,0.24,1.5,0.56,2.13,0.97c0.35,0.22,0.62,0.51,0.83,0.88c0.21,0.36,0.31,0.73,0.31,1.11
									c0,0.25-0.04,0.47-0.12,0.66c-0.08,0.19-0.18,0.4-0.31,0.62h0.05c-0.44,0.73-1.11,1.09-1.99,1.09c-0.41,0-0.87-0.13-1.37-0.38
									l0.09,0.05c-0.28-0.16-0.6-0.28-0.95-0.38c-0.35-0.09-0.66-0.14-0.95-0.14c-0.54,0-1,0.06-1.37,0.19
									c-0.38,0.13-0.7,0.27-0.95,0.43c-0.25,0.16-0.44,0.32-0.55,0.47c-0.11,0.16-0.17,0.27-0.17,0.33c0,0.13,0.02,0.27,0.05,0.43
									c0.03,0.16,0.13,0.33,0.28,0.52c0.16,0.19,0.41,0.39,0.76,0.59c0.35,0.21,0.84,0.4,1.47,0.59c0.25,0.06,0.71,0.19,1.38,0.38
									C93,335.13,93.69,335.4,94.42,335.75z"
        />
        <path
          class="st2"
          d="M115.28,349.3c-0.41,0-0.68-0.02-0.81-0.05c-1.45-0.06-2.8-0.39-4.03-1c-1.23-0.6-2.26-1.42-3.08-2.46
									c-1.58-2.02-2.37-4.54-2.37-7.54c0-1.52,0.25-2.95,0.76-4.29c0.5-1.34,1.19-2.51,2.06-3.51c0.87-1,1.88-1.79,3.03-2.37
									c1.15-0.58,2.39-0.88,3.72-0.88c2.69,0,4.98,1.04,6.87,3.13c0.88,0.98,1.56,2.1,2.02,3.37c0.46,1.26,0.69,2.61,0.69,4.03
									c0,0.66-0.24,1.23-0.71,1.71c-0.47,0.47-1.03,0.71-1.66,0.71h-11.9c0.16,0.51,0.37,1.01,0.64,1.52c0.27,0.51,0.59,0.96,0.97,1.38
									c0.38,0.41,0.83,0.75,1.35,1.02s1.13,0.42,1.83,0.45h0.28c0.41,0,0.94-0.04,1.59-0.12c0.65-0.08,1.32-0.36,2.02-0.83
									c0.5-0.25,0.96-0.38,1.37-0.38c0.41,0,0.81,0.11,1.21,0.33c0.4,0.22,0.72,0.55,0.97,1c0.16,0.13,0.24,0.46,0.24,1
									c0,0.82-0.38,1.52-1.14,2.09c-1.11,0.73-2.2,1.19-3.29,1.4C116.82,349.2,115.94,349.3,115.28,349.3z M119.02,335.37
									c-0.47-1.07-1.03-1.88-1.66-2.42c-0.63-0.54-1.52-0.81-2.65-0.81c-1.11,0-1.98,0.29-2.63,0.85c-0.65,0.57-1.26,1.36-1.83,2.37
									H119.02z"
        />
        <path
          class="st2"
          d="M147.94,327.5c0.44,0.19,0.77,0.48,1,0.88c0.22,0.4,0.33,0.81,0.33,1.26c0,0.22-0.02,0.41-0.07,0.57
									s-0.1,0.32-0.17,0.47l-8.2,17.3c-0.16,0.41-0.44,0.73-0.83,0.97c-0.4,0.24-0.81,0.36-1.26,0.36c-0.44,0-0.86-0.13-1.26-0.4
									c-0.4-0.27-0.7-0.58-0.92-0.92l-8.2-17.3c-0.06-0.16-0.12-0.32-0.17-0.47s-0.07-0.35-0.07-0.57c0-0.44,0.11-0.86,0.33-1.26
									c0.22-0.39,0.55-0.69,1-0.88c0.32-0.19,0.66-0.28,1.04-0.28c0.44,0,0.86,0.13,1.26,0.38c0.39,0.25,0.69,0.6,0.88,1.04l6.12,12.71
									l6.02-12.71c0.22-0.38,0.53-0.71,0.92-1c0.4-0.28,0.8-0.43,1.21-0.43C147.25,327.21,147.59,327.31,147.94,327.5z"
        />
        <path
          class="st2"
          d="M163.59,349.3c-0.41,0-0.68-0.02-0.81-0.05c-1.45-0.06-2.8-0.39-4.03-1c-1.23-0.6-2.26-1.42-3.08-2.46
									c-1.58-2.02-2.37-4.54-2.37-7.54c0-1.52,0.25-2.95,0.76-4.29c0.5-1.34,1.19-2.51,2.06-3.51c0.87-1,1.88-1.79,3.03-2.37
									c1.15-0.58,2.39-0.88,3.72-0.88c2.69,0,4.98,1.04,6.87,3.13c0.88,0.98,1.56,2.1,2.02,3.37c0.46,1.26,0.69,2.61,0.69,4.03
									c0,0.66-0.24,1.23-0.71,1.71c-0.47,0.47-1.03,0.71-1.66,0.71h-11.9c0.16,0.51,0.37,1.01,0.64,1.52c0.27,0.51,0.59,0.96,0.97,1.38
									c0.38,0.41,0.83,0.75,1.35,1.02s1.13,0.42,1.83,0.45h0.28c0.41,0,0.94-0.04,1.59-0.12c0.65-0.08,1.32-0.36,2.02-0.83
									c0.5-0.25,0.96-0.38,1.37-0.38c0.41,0,0.81,0.11,1.21,0.33c0.4,0.22,0.72,0.55,0.97,1c0.16,0.13,0.24,0.46,0.24,1
									c0,0.82-0.38,1.52-1.14,2.09c-1.11,0.73-2.2,1.19-3.29,1.4C165.13,349.2,164.25,349.3,163.59,349.3z M167.33,335.37
									c-0.47-1.07-1.03-1.88-1.66-2.42c-0.63-0.54-1.52-0.81-2.65-0.81c-1.11,0-1.98,0.29-2.63,0.85c-0.65,0.57-1.26,1.36-1.83,2.37
									H167.33z"
        />
        <path
          class="st2"
          d="M195.11,327.21c0.63,0,1.19,0.24,1.66,0.71c0.47,0.47,0.71,1.04,0.71,1.71v17.3c0,0.51-0.14,0.96-0.43,1.38
									c-0.28,0.41-0.66,0.7-1.14,0.85c-0.25,0.09-0.54,0.14-0.85,0.14c-0.28,0-0.59-0.09-0.92-0.26c-0.33-0.17-0.61-0.37-0.83-0.59
									l-10.19-12.23v10.71c0,0.63-0.24,1.18-0.71,1.66c-0.47,0.47-1.04,0.71-1.71,0.71c-0.63,0-1.19-0.24-1.66-0.71
									c-0.47-0.47-0.71-1.03-0.71-1.66v-17.3c0-0.5,0.13-0.96,0.4-1.37c0.27-0.41,0.64-0.71,1.11-0.9c0.13-0.06,0.27-0.1,0.43-0.12
									c0.16-0.02,0.32-0.02,0.47-0.02c0.32,0,0.63,0.09,0.95,0.28c0.32,0.19,0.6,0.38,0.85,0.57l10.19,12.18v-10.62
									c0-0.66,0.24-1.23,0.71-1.71C193.93,327.45,194.48,327.21,195.11,327.21z"
        />
        <path
          class="st2"
          d="M215.07,335.75c0.92,0.44,1.67,0.9,2.25,1.38c0.58,0.47,1.04,0.95,1.38,1.42c0.33,0.47,0.57,0.94,0.71,1.4
									c0.14,0.46,0.23,0.88,0.26,1.26v0.52c0,0.88-0.15,1.75-0.45,2.58c-0.3,0.84-0.77,1.59-1.4,2.25c-0.85,0.89-1.86,1.56-3.01,2.04
									c-1.15,0.47-2.43,0.71-3.82,0.71c-1.55,0-2.97-0.36-4.27-1.07s-2.29-1.67-2.99-2.87c-0.22-0.51-0.33-0.92-0.33-1.23
									c0-0.41,0.09-0.8,0.28-1.16c0.19-0.36,0.49-0.66,0.9-0.88c0.44-0.22,0.84-0.33,1.19-0.33c0.38,0,0.76,0.1,1.14,0.31
									c0.38,0.21,0.68,0.51,0.9,0.92c0.35,0.57,0.83,0.96,1.45,1.19c0.62,0.22,1.19,0.33,1.73,0.33c0.73,0,1.37-0.09,1.94-0.28
									c0.57-0.19,1.03-0.49,1.38-0.9h-0.05c0.44-0.44,0.66-1.04,0.66-1.8c-0.09-0.19-0.29-0.39-0.59-0.62
									c-0.3-0.22-0.66-0.45-1.09-0.69c-0.43-0.24-0.88-0.46-1.35-0.66c-0.47-0.21-0.93-0.36-1.38-0.45l-0.09-0.05
									c-0.7-0.19-1.41-0.45-2.13-0.78c-0.73-0.33-1.39-0.77-1.99-1.3c-0.6-0.54-1.09-1.18-1.47-1.92c-0.38-0.74-0.57-1.62-0.57-2.63
									c0-0.88,0.2-1.71,0.59-2.47c0.39-0.76,0.94-1.42,1.64-1.99c0.69-0.57,1.52-1.01,2.49-1.33c0.96-0.32,2-0.47,3.11-0.47
									c0.73,0,1.49,0.12,2.28,0.36c0.79,0.24,1.5,0.56,2.13,0.97c0.35,0.22,0.62,0.51,0.83,0.88c0.21,0.36,0.31,0.73,0.31,1.11
									c0,0.25-0.04,0.47-0.12,0.66c-0.08,0.19-0.18,0.4-0.31,0.62h0.05c-0.44,0.73-1.11,1.09-1.99,1.09c-0.41,0-0.87-0.13-1.38-0.38
									l0.09,0.05c-0.28-0.16-0.6-0.28-0.95-0.38s-0.66-0.14-0.95-0.14c-0.54,0-1,0.06-1.38,0.19c-0.38,0.13-0.7,0.27-0.95,0.43
									c-0.25,0.16-0.43,0.32-0.54,0.47c-0.11,0.16-0.17,0.27-0.17,0.33c0,0.13,0.02,0.27,0.05,0.43c0.03,0.16,0.13,0.33,0.28,0.52
									c0.16,0.19,0.41,0.39,0.76,0.59c0.35,0.21,0.84,0.4,1.47,0.59c0.25,0.06,0.71,0.19,1.38,0.38
									C213.65,335.13,214.34,335.4,215.07,335.75z"
        />
        <path
          class="st2"
          d="M247.69,358.45c0,0.63-0.24,1.19-0.71,1.66c-0.47,0.47-1.04,0.71-1.71,0.71c-0.63,0-1.19-0.24-1.66-0.71
									c-0.47-0.47-0.71-1.03-0.71-1.66v-11.14c-1.07,0.63-2.14,1.12-3.2,1.47c-1.06,0.35-2.08,0.52-3.06,0.52
									c-1.52,0-2.95-0.29-4.29-0.88c-1.34-0.58-2.51-1.38-3.51-2.37c-1-1-1.79-2.17-2.37-3.51c-0.58-1.34-0.88-2.77-0.88-4.29
									c0-1.52,0.29-2.95,0.88-4.29c0.58-1.34,1.38-2.51,2.37-3.51c1-1,2.16-1.79,3.51-2.37c1.34-0.58,2.77-0.88,4.29-0.88
									c1.01,0,2.05,0.17,3.11,0.52c1.06,0.35,2.09,0.82,3.11,1.42c0.25-0.57,0.6-1.04,1.04-1.4c0.44-0.36,0.9-0.54,1.38-0.54
									c0.66,0,1.23,0.24,1.71,0.71c0.47,0.47,0.71,1.03,0.71,1.66V358.45z M242.9,338.26c0-0.85-0.16-1.66-0.47-2.42
									c-0.32-0.76-0.76-1.42-1.33-1.99c-0.57-0.57-1.23-1.02-1.99-1.35c-0.76-0.33-1.58-0.5-2.47-0.5c-0.85,0-1.66,0.17-2.42,0.5
									c-0.76,0.33-1.42,0.78-1.99,1.35c-0.57,0.57-1.02,1.23-1.35,1.99s-0.5,1.56-0.5,2.42c0,0.88,0.17,1.71,0.5,2.46
									s0.78,1.42,1.35,1.99c0.57,0.57,1.23,1.01,1.99,1.33c0.76,0.32,1.57,0.47,2.42,0.47c0.88,0,1.71-0.16,2.47-0.47
									c0.76-0.32,1.42-0.76,1.99-1.33c0.57-0.57,1.01-1.23,1.33-1.99C242.74,339.96,242.9,339.14,242.9,338.26z"
        />
        <path
          class="st2"
          d="M268.55,327.21c0.63,0,1.19,0.24,1.66,0.71c0.47,0.47,0.71,1.04,0.71,1.71v11.24c0,0.16-0.05,0.64-0.14,1.45
									c-0.09,0.81-0.4,1.68-0.9,2.63c-0.73,1.42-1.75,2.5-3.06,3.25c-1.31,0.74-2.84,1.11-4.57,1.11c-1.77,0-3.31-0.37-4.62-1.11
									c-1.31-0.74-2.33-1.83-3.06-3.25c-0.54-0.95-0.85-1.83-0.95-2.63c-0.09-0.81-0.14-1.29-0.14-1.45v-11.24
									c0-0.66,0.24-1.23,0.71-1.71c0.47-0.47,1.03-0.71,1.66-0.71c0.66,0,1.23,0.24,1.71,0.71c0.47,0.47,0.71,1.04,0.71,1.71v11.24
									c0,0.06,0.03,0.31,0.09,0.73c0.06,0.43,0.22,0.88,0.47,1.35c0.25,0.35,0.61,0.7,1.07,1.04c0.46,0.35,1.24,0.52,2.35,0.52
									c1.07,0,1.85-0.17,2.32-0.52c0.47-0.35,0.82-0.7,1.04-1.04c0.25-0.44,0.41-0.88,0.47-1.33c0.06-0.44,0.09-0.7,0.09-0.76v-11.24
									c0-0.66,0.24-1.23,0.71-1.71C267.36,327.45,267.92,327.21,268.55,327.21z"
        />
        <path
          class="st2"
          d="M296,346.93c0,0.63-0.24,1.18-0.71,1.66c-0.47,0.47-1.03,0.71-1.66,0.71c-0.47,0-0.92-0.17-1.35-0.5
									s-0.77-0.75-1.02-1.26c-1.01,0.54-2.09,0.96-3.22,1.26c-1.14,0.3-2.31,0.45-3.51,0.45c-1.99,0-3.63-0.47-4.91-1.42
									c-1.28-0.95-2.14-2.31-2.58-4.08c-0.13-0.47-0.19-0.98-0.19-1.52c0-1.36,0.39-2.53,1.18-3.51c0.51-0.69,1.12-1.26,1.85-1.68
									c0.73-0.43,1.51-0.76,2.35-1c0.84-0.24,1.71-0.4,2.63-0.5c0.92-0.09,1.83-0.14,2.75-0.14c0.5,0,1.1,0.02,1.78,0.05
									s1.26,0.06,1.73,0.09c-0.13-0.63-0.3-1.22-0.52-1.78c-0.22-0.55-0.49-0.92-0.81-1.11c-0.82-0.44-1.72-0.66-2.7-0.66
									c-1.01,0-1.98,0.19-2.92,0.57c-0.93,0.38-1.67,0.79-2.2,1.23c-0.22,0.19-0.47,0.33-0.74,0.4c-0.27,0.08-0.53,0.12-0.78,0.12
									c-0.7,0-1.31-0.27-1.85-0.81c-0.35-0.44-0.52-0.96-0.52-1.56c0-0.76,0.28-1.36,0.85-1.8c0.92-0.82,1.95-1.46,3.1-1.92
									c1.15-0.46,2.38-0.77,3.67-0.92c0.25-0.03,0.47-0.05,0.66-0.05c0.19,0,0.4,0,0.62,0c0.85,0,1.74,0.12,2.65,0.36
									c0.92,0.24,1.74,0.53,2.46,0.88c0.88,0.54,1.58,1.21,2.09,2.02c0.5,0.81,0.89,1.6,1.16,2.37c0.27,0.77,0.43,1.46,0.5,2.06
									c0.06,0.6,0.09,0.96,0.09,1.09v7.73L296,346.93z M291.02,340.34c-0.44-0.03-0.94-0.06-1.49-0.09c-0.55-0.03-1.1-0.05-1.64-0.05
									c-0.7,0-1.42,0.03-2.16,0.09c-0.74,0.06-1.42,0.17-2.04,0.33c-0.62,0.16-1.12,0.37-1.52,0.64c-0.4,0.27-0.59,0.61-0.59,1.02
									c0,0.79,0.31,1.35,0.92,1.68c0.62,0.33,1.29,0.5,2.01,0.5c0.5,0,0.93-0.02,1.28-0.07c0.35-0.05,0.58-0.09,0.71-0.12
									c0.06-0.03,0.13-0.05,0.19-0.05c1.01-0.22,1.83-0.59,2.47-1.11c0.63-0.52,1.09-1.02,1.37-1.49L291.02,340.34z"
        />
        <path
          class="st2"
          d="M310.12,327.21c0.63,0,1.18,0.24,1.66,0.71c0.47,0.47,0.71,1.04,0.71,1.71c0,0.66-0.24,1.23-0.71,1.68
									c-0.47,0.46-1.03,0.69-1.66,0.69c-0.54,0-1.11,0.08-1.73,0.24c-0.62,0.16-1.08,0.46-1.4,0.9c-0.06,0.13-0.13,0.28-0.19,0.47
									c-0.03,0.09-0.05,0.17-0.05,0.24v13.08c0,0.63-0.24,1.18-0.71,1.66c-0.47,0.47-1.04,0.71-1.71,0.71c-0.63,0-1.19-0.24-1.66-0.71
									c-0.47-0.47-0.71-1.03-0.71-1.66v-17.3c0-0.66,0.24-1.23,0.71-1.71c0.47-0.47,1.03-0.71,1.66-0.71c0.32,0,0.62,0.07,0.92,0.21
									c0.3,0.14,0.58,0.32,0.83,0.54c0.6-0.25,1.23-0.44,1.9-0.57S309.37,327.21,310.12,327.21z"
        />
        <path
          class="st2"
          d="M326.72,349.3c-0.41,0-0.68-0.02-0.81-0.05c-1.45-0.06-2.8-0.39-4.03-1c-1.23-0.6-2.26-1.42-3.08-2.46
									c-1.58-2.02-2.37-4.54-2.37-7.54c0-1.52,0.25-2.95,0.76-4.29c0.51-1.34,1.19-2.51,2.06-3.51c0.87-1,1.88-1.79,3.03-2.37
									c1.15-0.58,2.39-0.88,3.72-0.88c2.69,0,4.98,1.04,6.87,3.13c0.88,0.98,1.56,2.1,2.01,3.37c0.46,1.26,0.69,2.61,0.69,4.03
									c0,0.66-0.24,1.23-0.71,1.71c-0.47,0.47-1.03,0.71-1.66,0.71h-11.9c0.16,0.51,0.37,1.01,0.64,1.52c0.27,0.51,0.59,0.96,0.97,1.38
									c0.38,0.41,0.83,0.75,1.35,1.02s1.13,0.42,1.83,0.45h0.28c0.41,0,0.94-0.04,1.59-0.12c0.65-0.08,1.32-0.36,2.01-0.83
									c0.5-0.25,0.96-0.38,1.38-0.38c0.41,0,0.81,0.11,1.21,0.33c0.39,0.22,0.72,0.55,0.97,1c0.16,0.13,0.24,0.46,0.24,1
									c0,0.82-0.38,1.52-1.14,2.09c-1.11,0.73-2.2,1.19-3.29,1.4C328.26,349.2,327.38,349.3,326.72,349.3z M330.46,335.37
									c-0.47-1.07-1.03-1.88-1.66-2.42c-0.63-0.54-1.52-0.81-2.65-0.81c-1.11,0-1.98,0.29-2.63,0.85c-0.65,0.57-1.26,1.36-1.83,2.37
									H330.46z"
        />
      </g>
    </g>
  </g>
</svg>
